<?xml version="1.0" encoding="utf-8"?>
<!-- Generated by IcoMoon.io -->
<!DOCTYPE svg PUBLIC "-//W3C//DTD SVG 1.1//EN" "http://www.w3.org/Graphics/SVG/1.1/DTD/svg11.dtd">
<svg version="1.1" xmlns="http://www.w3.org/2000/svg" xmlns:xlink="http://www.w3.org/1999/xlink">
<symbol id="knight" viewBox="0 0 16 16">
<path d="M15.5 15h-11.5l-0.5 1h12.5zM8.867 8c0.21 3.248-2.649 4.524-3.635 6.5h9.768c0-1.119 0-2.905 0-5.5 0-3.474-1.361-5.982-2.967-7.19-0.074-0.315-0.186-0.664-0.311-0.947l-0.193-0.438c-0.222-0.503-0.692-0.57-1.045-0.148l-0.604 0.722c-0.004-0-0.009-0-0.013-0-0.257 0-0.494 0.008-0.714 0.023l-1.321-0.881c-0.458-0.305-0.832-0.105-0.832 0.445v1.018c-0.406 0.23-0.746 0.508-1.133 0.803-1 0.762-3.404 3.783-5 5.591-1.476 1.672-0.679 3 0.719 2.688-0.070 1.313 1.024 0.891 1.781 0.313 1.747-1.333 5.649-0.703 5.5-3zM12.108 2.704c0.539 0.546 1.005 1.244 1.367 2.055 0.556 1.246 0.838 2.672 0.838 4.241v4.5l-1.5-1.5v-3c0-1.357-0.238-2.578-0.707-3.63-0.288-0.645-0.648-1.19-1.057-1.605l1.061-1.061zM2.5 9.207c-0.391 0-0.707-0.317-0.707-0.707s0.317-0.707 0.707-0.707c0.39 0 0.707 0.317 0.707 0.707s-0.317 0.707-0.707 0.707zM7.53 4.499c-0.586 0.586-1.298 0.823-1.591 0.53s-0.055-1.005 0.53-1.591 1.298-0.823 1.591-0.53c0.293 0.293 0.055 1.005-0.53 1.591z"></path>
</symbol>
<symbol id="compass" viewBox="0 0 16 16">
<path d="M8 0c-4.418 0-8 3.582-8 8s3.582 8 8 8 8-3.582 8-8-3.582-8-8-8zM1.5 8c0-3.59 2.91-6.5 6.5-6.5 1.712 0 3.269 0.662 4.43 1.744l-6.43 2.756-2.756 6.43c-1.082-1.161-1.744-2.718-1.744-4.43zM9.143 9.143l-4.001 1.715 1.715-4.001 2.286 2.286zM8 14.5c-1.712 0-3.269-0.662-4.43-1.744l6.43-2.756 2.756-6.43c1.082 1.161 1.744 2.718 1.744 4.43 0 3.59-2.91 6.5-6.5 6.5z"></path>
</symbol>
<symbol id="virus" viewBox="0 0 188.27 188.27">
<g>
	<path d="M104.299,77.94c0-7.014-5.687-12.698-12.702-12.698c-7.013,0-12.7,5.685-12.7,12.698c0,7.017,5.688,12.702,12.7,12.702
		C98.612,90.642,104.299,84.957,104.299,77.94z"/>
	<circle cx="72.767" cy="107.786" r="10.161"/>
	<path d="M110.43,92.544c-8.421,0-15.241,6.821-15.241,15.24c0,8.42,6.82,15.242,15.241,15.242c8.415,0,15.239-6.822,15.239-15.242
		C125.669,99.366,118.845,92.544,110.43,92.544z"/>
	<path d="M180.77,71.407c-4.142,0-7.5,3.358-7.5,7.5v7.729h-12.944c-1.436-12.757-6.49-24.429-14.109-33.975l9.177-9.178
		l5.465,5.465c1.464,1.465,3.384,2.197,5.303,2.197c1.92,0,3.839-0.732,5.303-2.197c2.929-2.929,2.929-7.677,0-10.606
		l-21.536-21.537c-2.929-2.93-7.678-2.929-10.606,0c-2.929,2.929-2.929,7.677,0,10.607l5.464,5.464l-9.178,9.179
		c-9.546-7.617-21.217-12.67-33.973-14.106V15h7.729c4.142,0,7.5-3.358,7.5-7.5s-3.358-7.5-7.5-7.5H78.906
		c-4.142,0-7.5,3.358-7.5,7.5s3.358,7.5,7.5,7.5h7.729v12.947c-12.757,1.437-24.428,6.49-33.975,14.108l-9.179-9.181l5.465-5.465
		c2.929-2.929,2.929-7.678,0-10.607c-2.929-2.93-7.678-2.929-10.606,0L16.804,38.341c-2.929,2.929-2.929,7.678,0,10.606
		c1.464,1.465,3.384,2.197,5.303,2.197c1.919,0,3.839-0.732,5.303-2.197l5.465-5.465l9.179,9.18
		c-7.618,9.546-12.671,21.217-14.107,33.973H15.001v-7.726c0-4.142-3.357-7.5-7.5-7.5c-4.142,0-7.5,3.358-7.5,7.5L0,109.364
		c0,4.142,3.358,7.5,7.5,7.5c4.142,0,7.5-3.358,7.5-7.5v-7.729h12.947c1.437,12.756,6.49,24.427,14.107,33.973l-9.179,9.18
		l-5.465-5.465c-2.929-2.93-7.678-2.929-10.607,0c-2.929,2.929-2.929,7.677,0,10.606l21.536,21.537
		c1.464,1.465,3.384,2.197,5.303,2.197s3.839-0.732,5.303-2.197c2.929-2.929,2.929-7.677,0-10.606l-5.465-5.465l9.18-9.181
		c9.546,7.617,21.217,12.67,33.974,14.106v12.948h-7.729c-4.142,0-7.5,3.358-7.5,7.5c0,4.142,3.358,7.5,7.5,7.5h30.456
		c4.142,0,7.5-3.358,7.5-7.5c0-4.142-3.358-7.5-7.5-7.5h-7.726v-12.948c12.756-1.436,24.427-6.488,33.973-14.105l9.178,9.179
		l-5.464,5.464c-2.929,2.929-2.929,7.677,0,10.607c1.464,1.465,3.384,2.197,5.303,2.197c1.919,0,3.839-0.732,5.303-2.197
		l21.536-21.535c2.929-2.929,2.929-7.677,0-10.606c-2.929-2.93-7.678-2.929-10.606,0l-5.465,5.465l-9.178-9.179
		c7.619-9.546,12.672-21.217,14.109-33.974h12.943v7.727c0,4.142,3.357,7.5,7.5,7.5c4.142,0,7.5-3.358,7.5-7.5l0.001-30.455
		C188.27,74.765,184.912,71.407,180.77,71.407z M145.744,94.728c-0.158,13.903-5.833,26.502-14.943,35.703
		c-0.064,0.06-0.131,0.113-0.194,0.175c-0.062,0.062-0.115,0.129-0.175,0.193c-9.21,9.117-21.824,14.793-35.742,14.941
		c-0.184-0.013-0.367-0.028-0.554-0.028c-0.187,0-0.37,0.015-0.553,0.028c-28.119-0.299-50.917-23.183-51.062-51.336
		c0.003-0.091,0.014-0.18,0.014-0.271c0-0.091-0.01-0.18-0.014-0.27c0.147-28.256,23.11-51.21,51.371-51.343
		c0.082,0.003,0.162,0.012,0.244,0.012c0.082,0,0.163-0.01,0.245-0.012c14.04,0.066,26.771,5.763,36.049,14.947
		c0.061,0.065,0.114,0.133,0.177,0.196c0.063,0.063,0.132,0.117,0.196,0.178c9.109,9.201,14.783,21.799,14.94,35.702
		c-0.015,0.196-0.03,0.393-0.03,0.592S145.729,94.532,145.744,94.728z"/>
</g>
<g>
</g>
<g>
</g>
<g>
</g>
<g>
</g>
<g>
</g>
<g>
</g>
<g>
</g>
<g>
</g>
<g>
</g>
<g>
</g>
<g>
</g>
<g>
</g>
<g>
</g>
<g>
</g>
<g>
</g>
</symbol>
<symbol id="quotes" viewBox="0 0 191.029 191.029">
<path d="M44.33,88.474v15.377h38.417v82.745H0v-82.745h0.002V88.474c0-31.225,8.984-54.411,26.704-68.918
	C38.964,9.521,54.48,4.433,72.824,4.433v44.326C62.866,48.759,44.33,48.759,44.33,88.474z M181.107,48.759V4.433
	c-18.343,0-33.859,5.088-46.117,15.123c-17.72,14.507-26.705,37.694-26.705,68.918v15.377h0v82.745h82.744v-82.745h-38.417V88.474
	C152.613,48.759,171.149,48.759,181.107,48.759z"/>
<g>
</g>
<g>
</g>
<g>
</g>
<g>
</g>
<g>
</g>
<g>
</g>
<g>
</g>
<g>
</g>
<g>
</g>
<g>
</g>
<g>
</g>
<g>
</g>
<g>
</g>
<g>
</g>
<g>
</g>
</symbol>
</svg>
