<?xml version="1.0" encoding="UTF-8"?>
<svg width="91px" height="67px" viewBox="0 0 91 67" version="1.1" xmlns="http://www.w3.org/2000/svg" xmlns:xlink="http://www.w3.org/1999/xlink">
    <title>img_b</title>
    <g id="Page-1" stroke="none" stroke-width="1" fill="none" fill-rule="evenodd">
        <g id="startseite-wireframe" transform="translate(-427.000000, -774.000000)" fill="#BDBDBD">
            <g id="Group-2" transform="translate(300.000000, 774.000000)">
                <g id="img_b" transform="translate(127.000000, 0.000000)">
                    <path d="M16.0583088,24.4446772 C42.2943914,4.40114315 66.452476,-2.53701236 78.9210283,17.1210205 C79.3107499,-6.26306298 45.4116,-7.41942689 16.0583088,24.4446772 Z" id="Path" fill-rule="nonzero"></path>
                    <polygon id="Path" fill-rule="nonzero" points="82.9473522 26.50046 76.8428892 26.50046 73.5958674 43.0750001 79.7003304 43.0750001"></polygon>
                    <polygon id="Path" fill-rule="nonzero" points="58.399687 26.50046 50.3470392 26.50046 47.1000174 43.2034167 52.1654109 43.2034167 54.6331305 30.3550529 56.0617806 43.0750001 60.4778261 43.0750001 66.8420565 30.3550529 64.3741958 43.0750001 69.4395892 43.0750001 72.6867521 26.50046 64.6339632 26.50046 59.5687108 36.6508182"></polygon>
                    <polygon id="Path" fill-rule="nonzero" points="32.2935587 26.50046 24.2409109 26.50046 20.9938891 43.0750001 25.9293283 43.0750001 28.3970479 30.3550529 29.825698 43.0750001 34.3715567 43.0750001 40.7357871 30.3550529 38.2680675 43.0750001 43.3334609 43.0750001 46.5804827 26.50046 38.5278348 26.50046 33.4624414 36.6508182"></polygon>
                    <path d="M19.0455632,37.8071262 L13.980212,36.3938453 C13.5905751,37.4217367 12.9411566,38.1925157 12.2917523,38.8350177 C11.5124642,39.3489634 10.6032925,39.6059363 9.43435336,39.6059363 C8.26542834,39.6059363 7.35625661,39.2204072 6.83672184,38.5780448 C6.31720118,37.8071262 6.18731749,36.5222619 6.57696856,34.7234519 C6.83672184,33.310171 7.35625661,32.1538629 7.87577727,31.6399172 C8.784949,30.7404424 9.95388813,30.2264967 11.3825805,30.2264967 C11.9021153,30.2264967 12.421636,30.2264967 12.9411566,30.4834696 C13.3308077,30.7404424 13.7204588,30.9974153 13.980212,31.3829444 C14.1100957,31.6399172 14.2399371,32.0253067 14.3698913,32.5392524 L19.9548196,31.511361 C19.5650979,29.8411072 18.7857958,28.5562429 17.4869589,27.6569077 C16.3180762,26.7574329 14.3698913,26.3720434 11.9021153,26.3720434 C8.784949,26.3720434 6.18731749,27.0144058 4.10922074,28.5562429 C2.03110988,29.9695238 0.732292705,32.1538629 0.212766401,34.8520082 C-0.176877621,37.0362077 -0.0469964683,38.7064615 0.732292705,39.9913257 C1.51158922,41.4047463 2.42074684,42.3040815 3.71956966,42.8180272 C5.01839247,43.3319729 6.70683815,43.5889458 8.9148327,43.5889458 C10.7331762,43.5889458 12.2917523,43.3319729 13.4606914,42.9464438 C14.6296587,42.5610543 15.7985414,41.918692 16.7077978,41.0192172 C17.6169131,40.119882 18.3962153,39.0919905 19.0455632,37.8071262 Z" id="Path" fill-rule="nonzero"></path>
                    <path d="M70.9983347,48.5997071 C70.8036149,48.7150029 70.6090363,48.8296008 70.4145988,48.9436404 L71.7776368,46.6726201 L70.4787999,46.6726201 L69.4397304,48.4714301 L68.9201956,49.4991819 C68.9201956,49.3707653 68.9201956,48.9852362 68.7903824,48.4714301 L68.5306151,46.5440639 L67.3615913,46.5440639 L68.1551447,50.2445568 C42.2207365,64.9015014 20.0073092,67.8161403 10.7333173,48.5997071 C7.82979237,70.0794835 37.8100528,75.1727386 68.3545207,50.7840462 L69.3099172,50.7840462 L70.2314494,49.2486299 C70.4871249,49.0343695 70.7428003,48.818155 70.9983347,48.5997071 Z" id="Path" fill-rule="nonzero"></path>
                    <path d="M84.3760022,21.2325862 C84.3760022,18.9198305 82.4278174,16.9926039 80.0899109,16.9926039 C77.7520045,16.9926039 75.8038196,18.7914139 75.8038196,21.2325862 C75.8038196,23.5452024 77.7520045,25.4725686 80.0899109,25.4725686 C82.4278174,25.4725686 84.3760022,23.5452024 84.3760022,21.2325862 Z" id="Path" fill-rule="nonzero"></path>
                    <polygon id="Path" fill-rule="nonzero" points="76.4533086 50.7840462 77.7521456 44.8738101 78.9211694 44.8738101 77.6223324 50.7840462"></polygon>
                    <path d="M76.0637281,48.9852362 L73.0764737,48.9852362 L73.0764737,49.1137924 C73.0764737,49.3707653 73.2062869,49.6277382 73.3362411,49.7561548 C73.4660543,49.884711 73.7258217,50.0131277 73.985589,50.0131277 C74.3753107,50.0131277 74.635078,49.7561548 74.8948454,49.3707653 L75.9337739,49.4991819 C75.6741476,49.884711 75.4143802,50.2701005 75.1546128,50.3986567 C74.7648912,50.6556296 74.3753107,50.6556296 73.985589,50.6556296 C73.3362411,50.6556296 72.9465195,50.5270734 72.556939,50.1416839 C72.1672173,49.7561548 72.0374042,49.2422091 72.0374042,48.7284029 C72.0374042,48.085901 72.1672173,47.5719553 72.556939,47.1865658 C72.9465195,46.5440639 73.5960085,46.287091 74.5051238,46.287091 C75.0246586,46.287091 75.4143802,46.4156472 75.8039607,46.8010367 C76.0637281,47.1865658 76.3234955,47.5719553 76.3234955,48.2144572 C76.1935413,48.4712905 76.0637281,48.7282634 76.0637281,48.9852362 Z M74.7648912,47.3149824 C74.8797476,47.5423636 74.9947451,47.7696052 75.01972,48.085901 L73.2062869,48.085901 C73.249605,48.0001969 73.292923,47.9002552 73.3362411,47.8003136 C73.4227362,47.6005699 73.5093723,47.4006866 73.5960085,47.3149824 C73.7258217,47.1865658 73.985589,47.0580096 74.2453564,47.0580096 C74.3753107,47.0580096 74.635078,47.1865658 74.7648912,47.3149824 Z" id="Shape"></path>
                    <path d="M66.7122434,48.9852362 L63.724989,48.9852362 L63.724989,49.1137924 C63.724989,49.3707653 63.8548021,49.6277382 63.9847564,49.7561548 C64.1145695,49.884711 64.3743369,50.0131277 64.6341043,50.0131277 C65.0238259,50.0131277 65.2835933,49.7561548 65.5433607,49.3707653 L66.5824302,49.4991819 C66.3226628,49.884711 66.0628954,50.2701005 65.8031281,50.3986567 C65.4134064,50.6556296 65.0238259,50.6556296 64.6341043,50.6556296 C63.9847564,50.6556296 63.5950347,50.5270734 63.2054542,50.1416839 C62.8157326,49.884711 62.5561063,49.4991819 62.5561063,48.8568196 C62.5561063,48.2144572 62.6859194,47.7005115 63.0755,47.3149824 C63.4652216,46.6726201 64.1145695,46.4156472 65.0238259,46.4156472 C65.5433607,46.4156472 65.9329412,46.5440639 66.3226628,46.9295929 C66.5824302,47.3149824 66.8421976,47.7005115 66.8421976,48.3428739 C66.7122434,48.4712905 66.7122434,48.7282634 66.7122434,48.9852362 Z M65.6731738,48.2144572 C65.6731738,47.8289281 65.5433607,47.5719553 65.4134064,47.3149824 C65.2835933,47.1865658 65.0238259,47.0580096 64.7640585,47.0580096 C64.5042911,47.0580096 64.2445238,47.1865658 64.1145695,47.3149824 C63.9847564,47.5719553 63.8548021,47.8289281 63.8548021,48.2144572 L65.6731738,48.2144572 Z" id="Shape"></path>
                    <polygon id="Path" fill-rule="nonzero" points="60.0882456 50.7840462 61.3870825 44.8738101 62.5561063 44.8738101 61.2572694 50.7840462"></polygon>
                    <path d="M82.6875848,40.7619652 L85.4150718,41.2759109 C85.4150718,40.7619652 85.545026,40.3765757 85.8047934,40.1196028 C85.9346065,39.9910466 86.1943739,39.8626299 86.5840956,39.8626299 C86.7328163,39.8626299 86.8627705,39.8813341 86.9736761,39.8973862 C87.1531569,39.9232091 87.2831111,39.9420528 87.3632566,39.8626299 C87.4932109,40.1196028 87.623024,40.3765757 87.623024,40.6335485 C87.623024,41.018938 87.4932109,41.2759109 87.2334435,41.5328837 C86.9736761,41.7898566 86.7139087,41.9184128 86.3243282,41.9184128 L85.9346065,41.9184128 L85.8047934,43.9740561 C86.1943739,43.8456395 86.4541413,43.8456395 86.7139087,43.8456395 C87.2334435,43.8456395 87.4932109,43.9740561 87.7529782,44.231029 C88.0127456,44.4880018 88.1425588,44.7449747 88.1425588,45.2589204 C88.1425588,45.7728661 88.0127456,46.1583952 87.7529782,46.415368 C87.4932109,46.6722013 87.2334435,46.8007575 86.8437218,46.8007575 C86.4541413,46.8007575 86.1943739,46.6722013 85.9346065,46.415368 C85.6748392,46.1583952 85.545026,45.7728661 85.4150718,45.2589204 L82.5577716,45.6444495 C82.6875848,46.2868118 82.9473522,46.8007575 83.3369327,47.186147 C83.5967001,47.5716761 84.1162348,47.828649 84.6357696,48.0856218 C85.1553044,48.3425947 85.9346065,48.4710113 86.8437218,48.4710113 C87.8827914,48.4710113 88.5322804,48.3425947 89.1816283,48.0856218 C89.7011631,47.7000928 90.2206978,47.3147033 90.4804652,46.8007575 C90.8701869,46.2868118 91,45.7728661 91,45.1305038 C91,44.7449747 90.8701869,44.3595852 90.7402326,43.9741957 C90.6104195,43.7172228 90.3506521,43.4601104 89.9609305,43.2031375 C89.7011631,43.0747209 89.4413957,42.9461647 89.0518152,42.817748 C89.4413957,42.5607752 89.8311173,42.3038023 90.0908847,41.9184128 C90.3506521,41.5328837 90.4804652,41.1474942 90.4804652,40.7619652 C90.4804652,40.1196028 90.2206978,39.4771009 89.5713499,38.9631551 C89.0518152,38.4492094 88.0127456,38.1922366 86.7139087,38.1922366 C85.545026,38.1922366 84.6357696,38.3207928 83.9864217,38.8347385 C83.3369327,39.220128 82.9473522,39.8626299 82.6875848,40.7619652 Z" id="Path" fill-rule="nonzero"></path>
                </g>
            </g>
        </g>
    </g>
</svg>